G04*
G04 #@! TF.GenerationSoftware,Altium Limited,Altium Designer,23.0.1 (38)*
G04*
G04 Layer_Color=255*
%FSLAX25Y25*%
%MOIN*%
G70*
G04*
G04 #@! TF.SameCoordinates,3541F037-1E4E-4125-B444-BB1E2F39CCB3*
G04*
G04*
G04 #@! TF.FilePolarity,Positive*
G04*
G01*
G75*
%ADD24R,0.06063X0.06063*%
%ADD25C,0.06063*%
%ADD30C,0.04921*%
%ADD31R,0.04921X0.04921*%
%ADD36R,0.05118X0.05118*%
%ADD37C,0.05118*%
%ADD38R,0.04724X0.04724*%
%ADD39C,0.04724*%
%ADD40R,0.05937X0.05937*%
%ADD41C,0.05937*%
%ADD42C,0.06299*%
%ADD43R,0.06299X0.06299*%
%ADD44R,0.08858X0.08858*%
%ADD45C,0.08858*%
%ADD46C,0.05906*%
%ADD47R,0.05906X0.05906*%
%ADD48R,0.05512X0.05512*%
%ADD49C,0.05512*%
D24*
X60295Y30142D02*
D03*
D25*
Y47858D02*
D03*
X34705Y30142D02*
D03*
Y47858D02*
D03*
D30*
X141000Y164185D02*
D03*
X111500Y65685D02*
D03*
D31*
X141000Y124815D02*
D03*
X111500Y26315D02*
D03*
D36*
X31000Y171500D02*
D03*
Y145000D02*
D03*
D37*
X41000Y171500D02*
D03*
Y145000D02*
D03*
D38*
X76000Y80894D02*
D03*
D39*
Y100106D02*
D03*
D40*
X264500Y70658D02*
D03*
X212567Y23736D02*
D03*
Y90236D02*
D03*
X211000Y152158D02*
D03*
X114067Y110394D02*
D03*
X37933Y90921D02*
D03*
D41*
X264500Y80500D02*
D03*
Y90343D02*
D03*
Y100185D02*
D03*
Y110028D02*
D03*
X212567Y33579D02*
D03*
Y43421D02*
D03*
Y53264D02*
D03*
Y100079D02*
D03*
Y109921D02*
D03*
Y119764D02*
D03*
X211000Y162000D02*
D03*
X114067Y120236D02*
D03*
Y130079D02*
D03*
Y139921D02*
D03*
Y149764D02*
D03*
Y159606D02*
D03*
X37933Y81079D02*
D03*
D42*
X261000Y147000D02*
D03*
Y157000D02*
D03*
D43*
Y167000D02*
D03*
D44*
X263000Y33000D02*
D03*
D45*
X243000D02*
D03*
D46*
X183500Y23500D02*
D03*
Y33500D02*
D03*
Y43500D02*
D03*
Y53500D02*
D03*
Y63500D02*
D03*
Y73500D02*
D03*
Y83500D02*
D03*
Y93500D02*
D03*
Y103500D02*
D03*
Y113500D02*
D03*
Y123500D02*
D03*
Y133500D02*
D03*
Y143500D02*
D03*
Y153500D02*
D03*
X153500Y23500D02*
D03*
Y33500D02*
D03*
Y43500D02*
D03*
Y53500D02*
D03*
Y63500D02*
D03*
Y73500D02*
D03*
Y83500D02*
D03*
Y93500D02*
D03*
Y103500D02*
D03*
Y113500D02*
D03*
Y123500D02*
D03*
Y133500D02*
D03*
Y143500D02*
D03*
D47*
Y153500D02*
D03*
D48*
X64657Y150000D02*
D03*
D49*
X84343D02*
D03*
M02*
