G04*
G04 #@! TF.GenerationSoftware,Altium Limited,Altium Designer,23.0.1 (38)*
G04*
G04 Layer_Physical_Order=2*
G04 Layer_Color=16711680*
%FSLAX25Y25*%
%MOIN*%
G70*
G04*
G04 #@! TF.SameCoordinates,3541F037-1E4E-4125-B444-BB1E2F39CCB3*
G04*
G04*
G04 #@! TF.FilePolarity,Positive*
G04*
G01*
G75*
%ADD24R,0.06063X0.06063*%
%ADD25C,0.06063*%
%ADD30C,0.04921*%
%ADD31R,0.04921X0.04921*%
%ADD35C,0.01500*%
%ADD36R,0.05118X0.05118*%
%ADD37C,0.05118*%
%ADD38R,0.04724X0.04724*%
%ADD39C,0.04724*%
%ADD40R,0.05937X0.05937*%
%ADD41C,0.05937*%
%ADD42C,0.06299*%
%ADD43R,0.06299X0.06299*%
%ADD44R,0.08858X0.08858*%
%ADD45C,0.08858*%
%ADD46C,0.05906*%
%ADD47R,0.05906X0.05906*%
%ADD48R,0.05512X0.05512*%
%ADD49C,0.05512*%
%ADD50C,0.03937*%
D24*
X60295Y30142D02*
D03*
D25*
Y47858D02*
D03*
X34705Y30142D02*
D03*
Y47858D02*
D03*
D30*
X141000Y164185D02*
D03*
X111500Y65685D02*
D03*
D31*
X141000Y124815D02*
D03*
X111500Y26315D02*
D03*
D35*
X60295Y30142D02*
X95838Y65685D01*
X111500D01*
X114067Y110394D02*
X127361Y97100D01*
X139900D01*
X153500Y83500D01*
X79543Y154800D02*
X84343Y150000D01*
X50800Y154800D02*
X79543D01*
X41000Y145000D02*
X50800Y154800D01*
X183500Y93500D02*
X190079Y100079D01*
X212567D01*
X232146Y80500D01*
X264500D01*
X212567Y43421D02*
X232579D01*
X243000Y33000D01*
X211000Y152158D02*
X215842Y157000D01*
X261000D01*
X183500Y123500D02*
X202000Y105000D01*
X249843D01*
X264500Y90343D01*
X183500Y133500D02*
X231185D01*
X264500Y100185D01*
X114067Y130079D02*
X119331Y124815D01*
X141000D01*
X114067Y139921D02*
X133279D01*
X144700Y128500D01*
X167097D01*
X76000Y80894D02*
X136106D01*
X153500Y63500D01*
X76000Y100106D02*
X84806Y91300D01*
X135700D01*
X153500Y73500D01*
X64657Y150000D02*
X94421Y120236D01*
X114067D01*
X133903Y100400D01*
X146600D01*
X153500Y93500D01*
X163500Y83500D01*
X183500D01*
X190236Y90236D01*
X212567D01*
X232146Y70658D01*
X264500D01*
X30100Y73246D02*
X37933Y81079D01*
X30100Y27300D02*
Y73246D01*
Y27300D02*
X33100Y24300D01*
X94985D01*
X97000Y26315D01*
X111500D01*
X118685Y33500D01*
X153500D01*
X155800Y162000D02*
X211000D01*
X153500Y143500D02*
X158100Y148100D01*
X198500D01*
X153500Y133500D02*
X173900D01*
X178900Y128500D01*
X203831D01*
X212567Y119764D01*
D36*
X31000Y171500D02*
D03*
Y145000D02*
D03*
D37*
X41000Y171500D02*
D03*
Y145000D02*
D03*
D38*
X76000Y80894D02*
D03*
D39*
Y100106D02*
D03*
D40*
X264500Y70658D02*
D03*
X212567Y23736D02*
D03*
Y90236D02*
D03*
X211000Y152158D02*
D03*
X114067Y110394D02*
D03*
X37933Y90921D02*
D03*
D41*
X264500Y80500D02*
D03*
Y90343D02*
D03*
Y100185D02*
D03*
Y110028D02*
D03*
X212567Y33579D02*
D03*
Y43421D02*
D03*
Y53264D02*
D03*
Y100079D02*
D03*
Y109921D02*
D03*
Y119764D02*
D03*
X211000Y162000D02*
D03*
X114067Y120236D02*
D03*
Y130079D02*
D03*
Y139921D02*
D03*
Y149764D02*
D03*
Y159606D02*
D03*
X37933Y81079D02*
D03*
D42*
X261000Y147000D02*
D03*
Y157000D02*
D03*
D43*
Y167000D02*
D03*
D44*
X263000Y33000D02*
D03*
D45*
X243000D02*
D03*
D46*
X183500Y23500D02*
D03*
Y33500D02*
D03*
Y43500D02*
D03*
Y53500D02*
D03*
Y63500D02*
D03*
Y73500D02*
D03*
Y83500D02*
D03*
Y93500D02*
D03*
Y103500D02*
D03*
Y113500D02*
D03*
Y123500D02*
D03*
Y133500D02*
D03*
Y143500D02*
D03*
Y153500D02*
D03*
X153500Y23500D02*
D03*
Y33500D02*
D03*
Y43500D02*
D03*
Y53500D02*
D03*
Y63500D02*
D03*
Y73500D02*
D03*
Y83500D02*
D03*
Y93500D02*
D03*
Y103500D02*
D03*
Y113500D02*
D03*
Y123500D02*
D03*
Y133500D02*
D03*
Y143500D02*
D03*
D47*
Y153500D02*
D03*
D48*
X64657Y150000D02*
D03*
D49*
X84343D02*
D03*
D50*
X167097Y128500D02*
D03*
X155800Y162000D02*
D03*
X198500Y148100D02*
D03*
M02*
