G04*
G04 #@! TF.GenerationSoftware,Altium Limited,Altium Designer,23.0.1 (38)*
G04*
G04 Layer_Physical_Order=1*
G04 Layer_Color=255*
%FSLAX25Y25*%
%MOIN*%
G70*
G04*
G04 #@! TF.SameCoordinates,3541F037-1E4E-4125-B444-BB1E2F39CCB3*
G04*
G04*
G04 #@! TF.FilePolarity,Positive*
G04*
G01*
G75*
%ADD24R,0.06063X0.06063*%
%ADD25C,0.06063*%
%ADD30C,0.04921*%
%ADD31R,0.04921X0.04921*%
%ADD35C,0.01500*%
%ADD36R,0.05118X0.05118*%
%ADD37C,0.05118*%
%ADD38R,0.04724X0.04724*%
%ADD39C,0.04724*%
%ADD40R,0.05937X0.05937*%
%ADD41C,0.05937*%
%ADD42C,0.06299*%
%ADD43R,0.06299X0.06299*%
%ADD44R,0.08858X0.08858*%
%ADD45C,0.08858*%
%ADD46C,0.05906*%
%ADD47R,0.05906X0.05906*%
%ADD48R,0.05512X0.05512*%
%ADD49C,0.05512*%
%ADD50C,0.03937*%
D24*
X60295Y30142D02*
D03*
D25*
Y47858D02*
D03*
X34705Y30142D02*
D03*
Y47858D02*
D03*
D30*
X141000Y164185D02*
D03*
X111500Y65685D02*
D03*
D31*
X141000Y124815D02*
D03*
X111500Y26315D02*
D03*
D35*
X76000Y100106D02*
Y159000D01*
X57400Y177600D02*
X76000Y159000D01*
X37100Y177600D02*
X57400D01*
X31000Y171500D02*
X37100Y177600D01*
X41000Y145000D02*
Y171500D01*
X111500Y65685D02*
X114067Y68252D01*
Y110394D01*
X109610D02*
X114067D01*
X84343Y135661D02*
X109610Y110394D01*
X84343Y135661D02*
Y150000D01*
X153500Y83500D02*
X173500D01*
X183500Y93500D01*
X208000Y95512D02*
X212567Y100079D01*
X208000Y47988D02*
Y95512D01*
Y47988D02*
X212567Y43421D01*
Y100079D02*
X217100Y104612D01*
Y146058D01*
X211000Y152158D02*
X217100Y146058D01*
X34705Y47858D02*
X39363Y43200D01*
X109900D01*
X118600Y51900D01*
Y114700D01*
X117600Y115700D02*
X118600Y114700D01*
X111200Y115700D02*
X117600D01*
X109500Y117400D02*
X111200Y115700D01*
X109500Y117400D02*
Y125512D01*
X114067Y130079D01*
X141000Y124815D02*
Y141000D01*
X153500Y153500D01*
X167097Y113003D02*
Y128500D01*
Y113003D02*
X181600Y98500D01*
X186400D01*
X188100Y96800D01*
Y58100D02*
Y96800D01*
X183500Y53500D02*
X188100Y58100D01*
X178900Y58900D02*
X183500Y63500D01*
X178900Y51600D02*
Y58900D01*
Y51600D02*
X181600Y48900D01*
X186400D01*
X191300Y53800D01*
Y104703D01*
X187103Y108900D02*
X191300Y104703D01*
X180900Y108900D02*
X187103D01*
X178997Y110803D02*
X180900Y108900D01*
X178997Y110803D02*
Y151603D01*
X157900Y172700D02*
X178997Y151603D01*
X137003Y172700D02*
X157900D01*
X114067Y149764D02*
X137003Y172700D01*
X109500Y155039D02*
X114067Y159606D01*
X109500Y146500D02*
Y155039D01*
Y146500D02*
X111200Y144800D01*
X132700D01*
X135600Y147700D01*
Y165600D01*
X138400Y168400D01*
X154400D01*
X160303Y162497D01*
Y93203D02*
Y162497D01*
X156000Y88900D02*
X160303Y93203D01*
X150700Y88900D02*
X156000D01*
X148900Y87100D02*
X150700Y88900D01*
X148900Y60800D02*
Y87100D01*
Y60800D02*
X151200Y58500D01*
X168500D01*
X183500Y43500D01*
X31000Y71100D02*
Y145000D01*
Y71100D02*
X34600Y67500D01*
X62606D01*
X76000Y80894D01*
X263000Y33000D02*
Y60300D01*
X259900Y63400D02*
X263000Y60300D01*
X259900Y63400D02*
Y120000D01*
X265700Y125800D01*
Y162300D01*
X261000Y167000D02*
X265700Y162300D01*
X37933Y90921D02*
Y123276D01*
X64657Y150000D01*
X114067Y120236D02*
X141000Y147169D01*
Y164185D01*
X183500Y73500D02*
Y83500D01*
X212567Y90236D02*
X217100Y85703D01*
Y28269D02*
Y85703D01*
X212567Y23736D02*
X217100Y28269D01*
X264500Y70658D02*
X269100Y75258D01*
Y170400D01*
X266900Y172600D02*
X269100Y170400D01*
X257600Y172600D02*
X266900D01*
X256300Y171300D02*
X257600Y172600D01*
X256300Y151700D02*
Y171300D01*
Y151700D02*
X261000Y147000D01*
X146600Y30400D02*
X153500Y23500D01*
X146600Y30400D02*
Y136997D01*
X148600Y138997D01*
X156000D01*
X158003Y141000D01*
Y159797D01*
X155800Y162000D02*
X158003Y159797D01*
X198500Y123988D02*
Y148100D01*
Y123988D02*
X212567Y109921D01*
X183500Y113500D02*
X185410Y111590D01*
X188213D01*
X194900Y104903D01*
Y51246D02*
Y104903D01*
Y51246D02*
X212567Y33579D01*
D36*
X31000Y171500D02*
D03*
Y145000D02*
D03*
D37*
X41000Y171500D02*
D03*
Y145000D02*
D03*
D38*
X76000Y80894D02*
D03*
D39*
Y100106D02*
D03*
D40*
X264500Y70658D02*
D03*
X212567Y23736D02*
D03*
Y90236D02*
D03*
X211000Y152158D02*
D03*
X114067Y110394D02*
D03*
X37933Y90921D02*
D03*
D41*
X264500Y80500D02*
D03*
Y90343D02*
D03*
Y100185D02*
D03*
Y110028D02*
D03*
X212567Y33579D02*
D03*
Y43421D02*
D03*
Y53264D02*
D03*
Y100079D02*
D03*
Y109921D02*
D03*
Y119764D02*
D03*
X211000Y162000D02*
D03*
X114067Y120236D02*
D03*
Y130079D02*
D03*
Y139921D02*
D03*
Y149764D02*
D03*
Y159606D02*
D03*
X37933Y81079D02*
D03*
D42*
X261000Y147000D02*
D03*
Y157000D02*
D03*
D43*
Y167000D02*
D03*
D44*
X263000Y33000D02*
D03*
D45*
X243000D02*
D03*
D46*
X183500Y23500D02*
D03*
Y33500D02*
D03*
Y43500D02*
D03*
Y53500D02*
D03*
Y63500D02*
D03*
Y73500D02*
D03*
Y83500D02*
D03*
Y93500D02*
D03*
Y103500D02*
D03*
Y113500D02*
D03*
Y123500D02*
D03*
Y133500D02*
D03*
Y143500D02*
D03*
Y153500D02*
D03*
X153500Y23500D02*
D03*
Y33500D02*
D03*
Y43500D02*
D03*
Y53500D02*
D03*
Y63500D02*
D03*
Y73500D02*
D03*
Y83500D02*
D03*
Y93500D02*
D03*
Y103500D02*
D03*
Y113500D02*
D03*
Y123500D02*
D03*
Y133500D02*
D03*
Y143500D02*
D03*
D47*
Y153500D02*
D03*
D48*
X64657Y150000D02*
D03*
D49*
X84343D02*
D03*
D50*
X167097Y128500D02*
D03*
X155800Y162000D02*
D03*
X198500Y148100D02*
D03*
M02*
