M48
;Layer_Color=9474304
;FILE_FORMAT=2:4
INCH,LZ
;TYPE=PLATED
T1F00S00C0.0197
T2F00S00C0.0276
T3F00S00C0.0295
T4F00S00C0.0315
T5F00S00C0.0354
T6F00S00C0.0390
T7F00S00C0.0394
T8F00S00C0.0591
%
T01
X01671Y01285
X01558Y0162
X01985Y01481
T02
X0076Y008089
Y010011
T03
X01115Y002632
Y006568
X0141Y012481
Y016418
T04
X0031Y0145
X0041
Y01715
X0031
T05
X01535Y00235
Y00335
Y00435
Y00535
Y00635
Y00735
Y00835
Y00935
Y01035
Y01135
X01835
Y01035
Y00935
Y00835
Y00735
Y00635
Y00535
Y00435
Y00335
Y00235
X008434Y015
X006466
X01535Y01535
Y01435
Y01335
Y01235
X01835
Y01335
Y01435
Y01535
T06
X00347Y003014
Y004786
X00603
Y003014
T07
X02645Y007066
Y00805
Y009034
Y010019
Y011003
X021257Y010992
Y010008
Y009024
Y005326
Y004342
Y003358
Y002374
X011407Y011039
X003793Y009092
Y008108
X011407Y012024
Y013008
Y013992
Y014976
Y015961
X0211Y0162
Y015216
X021257Y011976
X0261Y0147
Y0157
Y0167
T08
X0263Y0033
X0243
M30
