G04*
G04 #@! TF.GenerationSoftware,Altium Limited,Altium Designer,23.0.1 (38)*
G04*
G04 Layer_Color=2752767*
%FSLAX25Y25*%
%MOIN*%
G70*
G04*
G04 #@! TF.SameCoordinates,3541F037-1E4E-4125-B444-BB1E2F39CCB3*
G04*
G04*
G04 #@! TF.FilePolarity,Positive*
G04*
G01*
G75*
%ADD14C,0.00500*%
%ADD54C,0.00667*%
D14*
X30000Y170500D02*
Y169500D01*
X32000D01*
Y170500D01*
X33000D01*
Y172500D01*
X32000D01*
Y173500D01*
X30000D01*
Y172500D01*
X29000D01*
Y170500D01*
X30000D01*
X40000D02*
Y169500D01*
X42000D01*
Y170500D01*
X43000D01*
Y172500D01*
X42000D01*
Y173500D01*
X40000D01*
Y172500D01*
X39000D01*
Y170500D01*
X40000D01*
X74000Y78894D02*
X75000D01*
X76000Y79894D01*
X77000Y78894D01*
X78000D01*
Y79894D01*
X77000Y80894D01*
X78000Y81894D01*
Y82894D01*
X77000D01*
X76000Y81894D01*
X75000Y82894D01*
X74000D01*
Y81894D01*
X75000Y80894D01*
X74000Y79894D01*
Y78894D01*
Y98106D02*
X75000D01*
X76000Y99106D01*
X77000Y98106D01*
X78000D01*
Y99106D01*
X77000Y100106D01*
X78000Y101106D01*
Y102106D01*
X77000D01*
X76000Y101106D01*
X75000Y102106D01*
X74000D01*
Y101106D01*
X75000Y100106D01*
X74000Y99106D01*
Y98106D01*
X262500Y68658D02*
Y72658D01*
X266500D01*
Y68658D01*
X262500D01*
Y78500D02*
Y82500D01*
X266500D01*
Y78500D01*
X262500D01*
Y88343D02*
Y92343D01*
X266500D01*
Y88343D01*
X262500D01*
Y98185D02*
Y102185D01*
X266500D01*
Y98185D01*
X262500D01*
Y108028D02*
Y112028D01*
X266500D01*
Y108028D01*
X262500D01*
X259000Y145000D02*
Y149000D01*
X263000D01*
Y145000D01*
X259000D01*
Y155000D02*
Y159000D01*
X263000D01*
Y155000D01*
X259000D01*
Y165000D02*
Y169000D01*
X263000D01*
Y165000D01*
X259000D01*
X210567Y21736D02*
Y25736D01*
X214567D01*
Y21736D01*
X210567D01*
Y31579D02*
Y35579D01*
X214567D01*
Y31579D01*
X210567D01*
Y41421D02*
Y45421D01*
X214567D01*
Y41421D01*
X210567D01*
Y51264D02*
Y55264D01*
X214567D01*
Y51264D01*
X210567D01*
Y88236D02*
Y92236D01*
X214567D01*
Y88236D01*
X210567D01*
Y98079D02*
Y102079D01*
X214567D01*
Y98079D01*
X210567D01*
Y107921D02*
Y111921D01*
X214567D01*
Y107921D01*
X210567D01*
Y117764D02*
Y121764D01*
X214567D01*
Y117764D01*
X210567D01*
X263000Y31000D02*
X261000Y35000D01*
X265000D01*
X263000Y31000D01*
X243000D02*
X241000Y35000D01*
X245000D01*
X243000Y31000D01*
X209000Y150158D02*
Y154158D01*
X213000D01*
Y150158D01*
X209000D01*
Y160000D02*
Y164000D01*
X213000D01*
Y160000D01*
X209000D01*
X183500Y21500D02*
X184500Y22500D01*
X185500D01*
X184500Y23500D01*
X185500Y24500D01*
X184500D01*
X183500Y25500D01*
X182500Y24500D01*
X181500D01*
X182500Y23500D01*
X181500Y22500D01*
X182500D01*
X183500Y21500D01*
Y31500D02*
X184500Y32500D01*
X185500D01*
X184500Y33500D01*
X185500Y34500D01*
X184500D01*
X183500Y35500D01*
X182500Y34500D01*
X181500D01*
X182500Y33500D01*
X181500Y32500D01*
X182500D01*
X183500Y31500D01*
Y41500D02*
X184500Y42500D01*
X185500D01*
X184500Y43500D01*
X185500Y44500D01*
X184500D01*
X183500Y45500D01*
X182500Y44500D01*
X181500D01*
X182500Y43500D01*
X181500Y42500D01*
X182500D01*
X183500Y41500D01*
Y51500D02*
X184500Y52500D01*
X185500D01*
X184500Y53500D01*
X185500Y54500D01*
X184500D01*
X183500Y55500D01*
X182500Y54500D01*
X181500D01*
X182500Y53500D01*
X181500Y52500D01*
X182500D01*
X183500Y51500D01*
Y61500D02*
X184500Y62500D01*
X185500D01*
X184500Y63500D01*
X185500Y64500D01*
X184500D01*
X183500Y65500D01*
X182500Y64500D01*
X181500D01*
X182500Y63500D01*
X181500Y62500D01*
X182500D01*
X183500Y61500D01*
Y71500D02*
X184500Y72500D01*
X185500D01*
X184500Y73500D01*
X185500Y74500D01*
X184500D01*
X183500Y75500D01*
X182500Y74500D01*
X181500D01*
X182500Y73500D01*
X181500Y72500D01*
X182500D01*
X183500Y71500D01*
Y81500D02*
X184500Y82500D01*
X185500D01*
X184500Y83500D01*
X185500Y84500D01*
X184500D01*
X183500Y85500D01*
X182500Y84500D01*
X181500D01*
X182500Y83500D01*
X181500Y82500D01*
X182500D01*
X183500Y81500D01*
Y91500D02*
X184500Y92500D01*
X185500D01*
X184500Y93500D01*
X185500Y94500D01*
X184500D01*
X183500Y95500D01*
X182500Y94500D01*
X181500D01*
X182500Y93500D01*
X181500Y92500D01*
X182500D01*
X183500Y91500D01*
Y101500D02*
X184500Y102500D01*
X185500D01*
X184500Y103500D01*
X185500Y104500D01*
X184500D01*
X183500Y105500D01*
X182500Y104500D01*
X181500D01*
X182500Y103500D01*
X181500Y102500D01*
X182500D01*
X183500Y101500D01*
Y111500D02*
X184500Y112500D01*
X185500D01*
X184500Y113500D01*
X185500Y114500D01*
X184500D01*
X183500Y115500D01*
X182500Y114500D01*
X181500D01*
X182500Y113500D01*
X181500Y112500D01*
X182500D01*
X183500Y111500D01*
Y121500D02*
X184500Y122500D01*
X185500D01*
X184500Y123500D01*
X185500Y124500D01*
X184500D01*
X183500Y125500D01*
X182500Y124500D01*
X181500D01*
X182500Y123500D01*
X181500Y122500D01*
X182500D01*
X183500Y121500D01*
Y131500D02*
X184500Y132500D01*
X185500D01*
X184500Y133500D01*
X185500Y134500D01*
X184500D01*
X183500Y135500D01*
X182500Y134500D01*
X181500D01*
X182500Y133500D01*
X181500Y132500D01*
X182500D01*
X183500Y131500D01*
Y141500D02*
X184500Y142500D01*
X185500D01*
X184500Y143500D01*
X185500Y144500D01*
X184500D01*
X183500Y145500D01*
X182500Y144500D01*
X181500D01*
X182500Y143500D01*
X181500Y142500D01*
X182500D01*
X183500Y141500D01*
Y151500D02*
X184500Y152500D01*
X185500D01*
X184500Y153500D01*
X185500Y154500D01*
X184500D01*
X183500Y155500D01*
X182500Y154500D01*
X181500D01*
X182500Y153500D01*
X181500Y152500D01*
X182500D01*
X183500Y151500D01*
X153500Y21500D02*
X154500Y22500D01*
X155500D01*
X154500Y23500D01*
X155500Y24500D01*
X154500D01*
X153500Y25500D01*
X152500Y24500D01*
X151500D01*
X152500Y23500D01*
X151500Y22500D01*
X152500D01*
X153500Y21500D01*
Y31500D02*
X154500Y32500D01*
X155500D01*
X154500Y33500D01*
X155500Y34500D01*
X154500D01*
X153500Y35500D01*
X152500Y34500D01*
X151500D01*
X152500Y33500D01*
X151500Y32500D01*
X152500D01*
X153500Y31500D01*
Y41500D02*
X154500Y42500D01*
X155500D01*
X154500Y43500D01*
X155500Y44500D01*
X154500D01*
X153500Y45500D01*
X152500Y44500D01*
X151500D01*
X152500Y43500D01*
X151500Y42500D01*
X152500D01*
X153500Y41500D01*
Y51500D02*
X154500Y52500D01*
X155500D01*
X154500Y53500D01*
X155500Y54500D01*
X154500D01*
X153500Y55500D01*
X152500Y54500D01*
X151500D01*
X152500Y53500D01*
X151500Y52500D01*
X152500D01*
X153500Y51500D01*
Y61500D02*
X154500Y62500D01*
X155500D01*
X154500Y63500D01*
X155500Y64500D01*
X154500D01*
X153500Y65500D01*
X152500Y64500D01*
X151500D01*
X152500Y63500D01*
X151500Y62500D01*
X152500D01*
X153500Y61500D01*
Y71500D02*
X154500Y72500D01*
X155500D01*
X154500Y73500D01*
X155500Y74500D01*
X154500D01*
X153500Y75500D01*
X152500Y74500D01*
X151500D01*
X152500Y73500D01*
X151500Y72500D01*
X152500D01*
X153500Y71500D01*
Y81500D02*
X154500Y82500D01*
X155500D01*
X154500Y83500D01*
X155500Y84500D01*
X154500D01*
X153500Y85500D01*
X152500Y84500D01*
X151500D01*
X152500Y83500D01*
X151500Y82500D01*
X152500D01*
X153500Y81500D01*
Y91500D02*
X154500Y92500D01*
X155500D01*
X154500Y93500D01*
X155500Y94500D01*
X154500D01*
X153500Y95500D01*
X152500Y94500D01*
X151500D01*
X152500Y93500D01*
X151500Y92500D01*
X152500D01*
X153500Y91500D01*
Y101500D02*
X154500Y102500D01*
X155500D01*
X154500Y103500D01*
X155500Y104500D01*
X154500D01*
X153500Y105500D01*
X152500Y104500D01*
X151500D01*
X152500Y103500D01*
X151500Y102500D01*
X152500D01*
X153500Y101500D01*
Y111500D02*
X154500Y112500D01*
X155500D01*
X154500Y113500D01*
X155500Y114500D01*
X154500D01*
X153500Y115500D01*
X152500Y114500D01*
X151500D01*
X152500Y113500D01*
X151500Y112500D01*
X152500D01*
X153500Y111500D01*
Y121500D02*
X154500Y122500D01*
X155500D01*
X154500Y123500D01*
X155500Y124500D01*
X154500D01*
X153500Y125500D01*
X152500Y124500D01*
X151500D01*
X152500Y123500D01*
X151500Y122500D01*
X152500D01*
X153500Y121500D01*
Y131500D02*
X154500Y132500D01*
X155500D01*
X154500Y133500D01*
X155500Y134500D01*
X154500D01*
X153500Y135500D01*
X152500Y134500D01*
X151500D01*
X152500Y133500D01*
X151500Y132500D01*
X152500D01*
X153500Y131500D01*
Y141500D02*
X154500Y142500D01*
X155500D01*
X154500Y143500D01*
X155500Y144500D01*
X154500D01*
X153500Y145500D01*
X152500Y144500D01*
X151500D01*
X152500Y143500D01*
X151500Y142500D01*
X152500D01*
X153500Y141500D01*
Y151500D02*
X154500Y152500D01*
X155500D01*
X154500Y153500D01*
X155500Y154500D01*
X154500D01*
X153500Y155500D01*
X152500Y154500D01*
X151500D01*
X152500Y153500D01*
X151500Y152500D01*
X152500D01*
X153500Y151500D01*
X139000Y162185D02*
X140000Y164185D01*
X139000Y166185D01*
X141000Y165185D01*
X143000Y166185D01*
X142000Y164185D01*
X143000Y162185D01*
X141000Y163185D01*
X139000Y162185D01*
Y122815D02*
X140000Y124815D01*
X139000Y126815D01*
X141000Y125815D01*
X143000Y126815D01*
X142000Y124815D01*
X143000Y122815D01*
X141000Y123815D01*
X139000Y122815D01*
X112067Y108394D02*
Y112394D01*
X116067D01*
Y108394D01*
X112067D01*
Y118236D02*
Y122236D01*
X116067D01*
Y118236D01*
X112067D01*
Y128079D02*
Y132079D01*
X116067D01*
Y128079D01*
X112067D01*
Y137921D02*
Y141921D01*
X116067D01*
Y137921D01*
X112067D01*
Y147764D02*
Y151764D01*
X116067D01*
Y147764D01*
X112067D01*
Y157606D02*
Y161606D01*
X116067D01*
Y157606D01*
X112067D01*
X64657Y148000D02*
X65657Y149000D01*
X66657D01*
X65657Y150000D01*
X66657Y151000D01*
X65657D01*
X64657Y152000D01*
X63657Y151000D01*
X62657D01*
X63657Y150000D01*
X62657Y149000D01*
X63657D01*
X64657Y148000D01*
X84343D02*
X85343Y149000D01*
X86343D01*
X85343Y150000D01*
X86343Y151000D01*
X85343D01*
X84343Y152000D01*
X83343Y151000D01*
X82343D01*
X83343Y150000D01*
X82343Y149000D01*
X83343D01*
X84343Y148000D01*
X30000Y144000D02*
Y143000D01*
X32000D01*
Y144000D01*
X33000D01*
Y146000D01*
X32000D01*
Y147000D01*
X30000D01*
Y146000D01*
X29000D01*
Y144000D01*
X30000D01*
X40000D02*
Y143000D01*
X42000D01*
Y144000D01*
X43000D01*
Y146000D01*
X42000D01*
Y147000D01*
X40000D01*
Y146000D01*
X39000D01*
Y144000D01*
X40000D01*
X35933Y88921D02*
Y92921D01*
X39933D01*
Y88921D01*
X35933D01*
Y79079D02*
Y83079D01*
X39933D01*
Y79079D01*
X35933D01*
X109500Y63685D02*
X110500Y65685D01*
X109500Y67685D01*
X111500Y66685D01*
X113500Y67685D01*
X112500Y65685D01*
X113500Y63685D01*
X111500Y64685D01*
X109500Y63685D01*
Y24315D02*
X110500Y26315D01*
X109500Y28315D01*
X111500Y27315D01*
X113500Y28315D01*
X112500Y26315D01*
X113500Y24315D01*
X111500Y25315D01*
X109500Y24315D01*
X165097Y128500D02*
X167097Y130500D01*
X169097Y128500D01*
X167097Y126500D01*
X165097Y128500D01*
X153800Y162000D02*
X155800Y164000D01*
X157800Y162000D01*
X155800Y160000D01*
X153800Y162000D01*
X196500Y148100D02*
X198500Y150100D01*
X200500Y148100D01*
X198500Y146100D01*
X196500Y148100D01*
D54*
X62295Y30142D02*
G03*
X62295Y30142I-2000J0D01*
G01*
Y47858D02*
G03*
X62295Y47858I-2000J0D01*
G01*
X36705Y30142D02*
G03*
X36705Y30142I-2000J0D01*
G01*
Y47858D02*
G03*
X36705Y47858I-2000J0D01*
G01*
M02*
