G04*
G04 #@! TF.GenerationSoftware,Altium Limited,Altium Designer,23.0.1 (38)*
G04*
G04 Layer_Color=32768*
%FSLAX25Y25*%
%MOIN*%
G70*
G04*
G04 #@! TF.SameCoordinates,3541F037-1E4E-4125-B444-BB1E2F39CCB3*
G04*
G04*
G04 #@! TF.FilePolarity,Positive*
G04*
G01*
G75*
%ADD51C,0.00394*%
%ADD53C,0.00197*%
D51*
X34032Y171500D02*
X37969D01*
X36000Y169532D02*
Y173469D01*
X76000Y88532D02*
Y92469D01*
X74032Y90500D02*
X77969D01*
X261000Y155032D02*
Y158969D01*
X259032Y157000D02*
X262969D01*
X168500Y86532D02*
Y90469D01*
X166532Y88500D02*
X170469D01*
X72532Y150000D02*
X76469D01*
X74500Y148032D02*
Y151969D01*
X34032Y145000D02*
X37969D01*
X36000Y143032D02*
Y146969D01*
D53*
X82296Y67838D02*
G03*
X85547Y71406I-197J3445D01*
G01*
X66453Y71479D02*
G03*
X69701Y67838I3445J-197D01*
G01*
Y113236D02*
G03*
X66453Y109595I197J-3445D01*
G01*
X85547Y109668D02*
G03*
X82296Y113236I-3448J123D01*
G01*
X28047Y176894D02*
X43953D01*
X28047Y166106D02*
Y176894D01*
Y166106D02*
X43953D01*
Y176894D01*
X69701Y67837D02*
X82296D01*
X69701Y113236D02*
X82296D01*
X85547Y71406D02*
Y109594D01*
X66453Y71406D02*
Y109594D01*
X250130Y60028D02*
X274736D01*
Y120658D01*
X250130D02*
X274736D01*
X250130Y60028D02*
Y120658D01*
X251984Y135937D02*
X272457D01*
X251984Y178063D02*
X272457D01*
Y135937D02*
Y178063D01*
X251984Y135937D02*
Y178063D01*
X198197Y13106D02*
X222803D01*
Y63894D01*
X198197D02*
X222803D01*
X198197Y13106D02*
Y63894D01*
Y79606D02*
X222803D01*
Y130394D01*
X198197D02*
X222803D01*
X198197Y79606D02*
Y130394D01*
X196630Y141528D02*
X221236D01*
X196630D02*
Y172630D01*
X221236D01*
Y141528D02*
Y172630D01*
X99697Y99764D02*
X124303D01*
Y170236D01*
X99697D02*
X124303D01*
X99697Y99764D02*
Y170236D01*
X54421Y170079D02*
X94579D01*
Y129921D02*
Y170079D01*
X54421Y129921D02*
Y170079D01*
Y129921D02*
X94579D01*
X28047Y150394D02*
X43953D01*
X28047Y139606D02*
Y150394D01*
Y139606D02*
X43953D01*
Y150394D01*
X27697Y101551D02*
X52303D01*
Y70449D02*
Y101551D01*
X27697Y70449D02*
X52303D01*
X27697D02*
Y101551D01*
M02*
