G04*
G04 #@! TF.GenerationSoftware,Altium Limited,Altium Designer,23.0.1 (38)*
G04*
G04 Layer_Color=8388736*
%FSLAX25Y25*%
%MOIN*%
G70*
G04*
G04 #@! TF.SameCoordinates,3541F037-1E4E-4125-B444-BB1E2F39CCB3*
G04*
G04*
G04 #@! TF.FilePolarity,Negative*
G04*
G01*
G75*
%ADD16R,0.05918X0.05918*%
%ADD17C,0.05918*%
%ADD18R,0.05524X0.05524*%
%ADD19C,0.05524*%
%ADD20R,0.06737X0.06737*%
%ADD21C,0.06737*%
%ADD22C,0.07099*%
%ADD23R,0.07099X0.07099*%
%ADD24R,0.06063X0.06063*%
%ADD25C,0.06063*%
%ADD26R,0.09658X0.09658*%
%ADD27C,0.09658*%
%ADD28C,0.06706*%
%ADD29R,0.06706X0.06706*%
%ADD30C,0.04921*%
%ADD31R,0.04921X0.04921*%
%ADD32R,0.06312X0.06312*%
%ADD33C,0.06312*%
%ADD34C,0.04737*%
D16*
X31000Y171500D02*
D03*
Y145000D02*
D03*
D17*
X41000Y171500D02*
D03*
Y145000D02*
D03*
D18*
X76000Y80894D02*
D03*
D19*
Y100106D02*
D03*
D20*
X264500Y70658D02*
D03*
X212567Y23736D02*
D03*
Y90236D02*
D03*
X211000Y152158D02*
D03*
X114067Y110394D02*
D03*
X37933Y90921D02*
D03*
D21*
X264500Y80500D02*
D03*
Y90343D02*
D03*
Y100185D02*
D03*
Y110028D02*
D03*
X212567Y33579D02*
D03*
Y43421D02*
D03*
Y53264D02*
D03*
Y100079D02*
D03*
Y109921D02*
D03*
Y119764D02*
D03*
X211000Y162000D02*
D03*
X114067Y120236D02*
D03*
Y130079D02*
D03*
Y139921D02*
D03*
Y149764D02*
D03*
Y159606D02*
D03*
X37933Y81079D02*
D03*
D22*
X261000Y147000D02*
D03*
Y157000D02*
D03*
D23*
Y167000D02*
D03*
D24*
X60295Y30142D02*
D03*
D25*
Y47858D02*
D03*
X34705Y30142D02*
D03*
Y47858D02*
D03*
D26*
X263000Y33000D02*
D03*
D27*
X243000D02*
D03*
D28*
X183500Y23500D02*
D03*
Y33500D02*
D03*
Y43500D02*
D03*
Y53500D02*
D03*
Y63500D02*
D03*
Y73500D02*
D03*
Y83500D02*
D03*
Y93500D02*
D03*
Y103500D02*
D03*
Y113500D02*
D03*
Y123500D02*
D03*
Y133500D02*
D03*
Y143500D02*
D03*
Y153500D02*
D03*
X153500Y23500D02*
D03*
Y33500D02*
D03*
Y43500D02*
D03*
Y53500D02*
D03*
Y63500D02*
D03*
Y73500D02*
D03*
Y83500D02*
D03*
Y93500D02*
D03*
Y103500D02*
D03*
Y113500D02*
D03*
Y123500D02*
D03*
Y133500D02*
D03*
Y143500D02*
D03*
D29*
Y153500D02*
D03*
D30*
X141000Y164185D02*
D03*
X111500Y65685D02*
D03*
D31*
X141000Y124815D02*
D03*
X111500Y26315D02*
D03*
D32*
X64657Y150000D02*
D03*
D33*
X84343D02*
D03*
D34*
X167097Y128500D02*
D03*
X155800Y162000D02*
D03*
X198500Y148100D02*
D03*
M02*
