G04*
G04 #@! TF.GenerationSoftware,Altium Limited,Altium Designer,23.0.1 (38)*
G04*
G04 Layer_Color=16711935*
%FSLAX25Y25*%
%MOIN*%
G70*
G04*
G04 #@! TF.SameCoordinates,3541F037-1E4E-4125-B444-BB1E2F39CCB3*
G04*
G04*
G04 #@! TF.FilePolarity,Positive*
G04*
G01*
G75*
%ADD10C,0.00787*%
G36*
X48525Y41597D02*
X48551D01*
X48578Y41595D01*
X48609Y41591D01*
X48645Y41587D01*
X48682Y41583D01*
X48721Y41577D01*
X48805Y41562D01*
X48890Y41538D01*
X48931Y41524D01*
X48972Y41509D01*
X48974Y41507D01*
X48982Y41505D01*
X48992Y41499D01*
X49007Y41491D01*
X49025Y41483D01*
X49046Y41471D01*
X49068Y41458D01*
X49093Y41442D01*
X49119Y41425D01*
X49146Y41405D01*
X49174Y41381D01*
X49199Y41358D01*
X49227Y41332D01*
X49252Y41305D01*
X49278Y41274D01*
X49299Y41242D01*
X49301Y41240D01*
X49305Y41234D01*
X49311Y41225D01*
X49317Y41211D01*
X49327Y41195D01*
X49336Y41175D01*
X49346Y41152D01*
X49358Y41129D01*
X49370Y41099D01*
X49382Y41070D01*
X49391Y41036D01*
X49401Y41003D01*
X49417Y40929D01*
X49421Y40889D01*
X49425Y40848D01*
X49105Y40825D01*
Y40827D01*
X49103Y40835D01*
X49101Y40848D01*
X49099Y40864D01*
X49093Y40883D01*
X49090Y40907D01*
X49082Y40931D01*
X49074Y40958D01*
X49062Y40987D01*
X49050Y41017D01*
X49037Y41046D01*
X49019Y41076D01*
X49001Y41105D01*
X48980Y41132D01*
X48956Y41160D01*
X48929Y41183D01*
X48927Y41185D01*
X48923Y41189D01*
X48913Y41195D01*
X48901Y41203D01*
X48886Y41213D01*
X48866Y41223D01*
X48845Y41234D01*
X48819Y41246D01*
X48790Y41256D01*
X48758Y41268D01*
X48721Y41278D01*
X48682Y41287D01*
X48641Y41295D01*
X48594Y41301D01*
X48545Y41305D01*
X48492Y41307D01*
X48462D01*
X48443Y41305D01*
X48417Y41303D01*
X48390Y41301D01*
X48357Y41297D01*
X48323Y41293D01*
X48251Y41279D01*
X48215Y41272D01*
X48178Y41260D01*
X48143Y41246D01*
X48109Y41232D01*
X48078Y41215D01*
X48051Y41195D01*
X48049Y41193D01*
X48045Y41189D01*
X48039Y41183D01*
X48029Y41175D01*
X48019Y41164D01*
X48008Y41152D01*
X47996Y41136D01*
X47982Y41121D01*
X47957Y41082D01*
X47935Y41036D01*
X47925Y41011D01*
X47919Y40985D01*
X47916Y40958D01*
X47914Y40929D01*
Y40927D01*
Y40923D01*
Y40915D01*
X47916Y40907D01*
X47917Y40895D01*
X47919Y40881D01*
X47925Y40850D01*
X47937Y40815D01*
X47955Y40778D01*
X47965Y40758D01*
X47978Y40740D01*
X47992Y40723D01*
X48010Y40705D01*
X48011D01*
X48015Y40701D01*
X48021Y40697D01*
X48031Y40690D01*
X48045Y40682D01*
X48063Y40672D01*
X48084Y40662D01*
X48109Y40650D01*
X48141Y40637D01*
X48176Y40623D01*
X48217Y40607D01*
X48264Y40591D01*
X48315Y40576D01*
X48376Y40558D01*
X48441Y40543D01*
X48513Y40525D01*
X48515D01*
X48517Y40523D01*
X48523D01*
X48531Y40521D01*
X48553Y40515D01*
X48580Y40509D01*
X48611Y40501D01*
X48651Y40492D01*
X48692Y40482D01*
X48735Y40470D01*
X48827Y40444D01*
X48874Y40433D01*
X48919Y40419D01*
X48962Y40405D01*
X49003Y40392D01*
X49038Y40378D01*
X49070Y40364D01*
X49072Y40362D01*
X49080Y40360D01*
X49092Y40354D01*
X49105Y40347D01*
X49125Y40337D01*
X49144Y40325D01*
X49168Y40311D01*
X49193Y40295D01*
X49246Y40258D01*
X49299Y40215D01*
X49350Y40164D01*
X49372Y40139D01*
X49393Y40109D01*
X49395Y40107D01*
X49397Y40102D01*
X49403Y40094D01*
X49409Y40082D01*
X49419Y40068D01*
X49427Y40051D01*
X49436Y40029D01*
X49446Y40007D01*
X49456Y39982D01*
X49466Y39955D01*
X49476Y39925D01*
X49483Y39894D01*
X49495Y39825D01*
X49497Y39788D01*
X49499Y39751D01*
Y39749D01*
Y39741D01*
Y39731D01*
X49497Y39717D01*
X49495Y39700D01*
X49493Y39678D01*
X49489Y39655D01*
X49485Y39629D01*
X49480Y39600D01*
X49472Y39570D01*
X49462Y39539D01*
X49450Y39508D01*
X49436Y39474D01*
X49423Y39439D01*
X49403Y39406D01*
X49384Y39372D01*
X49382Y39370D01*
X49378Y39364D01*
X49372Y39355D01*
X49362Y39343D01*
X49350Y39329D01*
X49336Y39312D01*
X49319Y39292D01*
X49299Y39272D01*
X49276Y39251D01*
X49252Y39227D01*
X49225Y39206D01*
X49195Y39182D01*
X49162Y39161D01*
X49129Y39137D01*
X49092Y39118D01*
X49052Y39098D01*
X49050Y39096D01*
X49042Y39094D01*
X49031Y39088D01*
X49015Y39082D01*
X48995Y39074D01*
X48970Y39067D01*
X48943Y39059D01*
X48911Y39049D01*
X48878Y39039D01*
X48841Y39031D01*
X48801Y39024D01*
X48758Y39016D01*
X48715Y39010D01*
X48668Y39004D01*
X48619Y39002D01*
X48570Y39000D01*
X48537D01*
X48513Y39002D01*
X48484Y39004D01*
X48450Y39006D01*
X48411Y39008D01*
X48370Y39012D01*
X48327Y39018D01*
X48280Y39024D01*
X48184Y39041D01*
X48137Y39053D01*
X48088Y39067D01*
X48043Y39080D01*
X47998Y39098D01*
X47996Y39100D01*
X47988Y39102D01*
X47976Y39108D01*
X47961Y39118D01*
X47941Y39127D01*
X47917Y39141D01*
X47894Y39155D01*
X47866Y39172D01*
X47839Y39192D01*
X47810Y39216D01*
X47778Y39239D01*
X47749Y39266D01*
X47719Y39296D01*
X47690Y39327D01*
X47663Y39362D01*
X47637Y39398D01*
X47635Y39400D01*
X47631Y39408D01*
X47625Y39417D01*
X47618Y39433D01*
X47606Y39453D01*
X47596Y39474D01*
X47584Y39500D01*
X47570Y39529D01*
X47559Y39562D01*
X47545Y39596D01*
X47535Y39633D01*
X47523Y39674D01*
X47516Y39715D01*
X47508Y39759D01*
X47502Y39804D01*
X47500Y39851D01*
X47813Y39878D01*
Y39876D01*
X47815Y39870D01*
Y39860D01*
X47818Y39847D01*
X47821Y39831D01*
X47825Y39811D01*
X47829Y39790D01*
X47835Y39768D01*
X47849Y39719D01*
X47866Y39666D01*
X47888Y39615D01*
X47916Y39566D01*
X47917Y39564D01*
X47919Y39560D01*
X47923Y39555D01*
X47931Y39547D01*
X47939Y39535D01*
X47951Y39523D01*
X47962Y39511D01*
X47978Y39496D01*
X47994Y39480D01*
X48013Y39465D01*
X48035Y39449D01*
X48057Y39433D01*
X48082Y39415D01*
X48109Y39400D01*
X48137Y39384D01*
X48168Y39370D01*
X48170D01*
X48176Y39366D01*
X48186Y39364D01*
X48198Y39359D01*
X48215Y39353D01*
X48235Y39347D01*
X48256Y39341D01*
X48282Y39333D01*
X48309Y39325D01*
X48339Y39319D01*
X48370Y39314D01*
X48403Y39308D01*
X48476Y39300D01*
X48554Y39296D01*
X48586D01*
X48603Y39298D01*
X48623Y39300D01*
X48645D01*
X48668Y39304D01*
X48719Y39310D01*
X48776Y39319D01*
X48833Y39333D01*
X48890Y39353D01*
X48892D01*
X48895Y39355D01*
X48903Y39359D01*
X48913Y39362D01*
X48927Y39368D01*
X48941Y39376D01*
X48972Y39394D01*
X49007Y39415D01*
X49044Y39443D01*
X49078Y39472D01*
X49107Y39508D01*
Y39510D01*
X49111Y39511D01*
X49113Y39517D01*
X49119Y39525D01*
X49131Y39545D01*
X49144Y39572D01*
X49156Y39604D01*
X49168Y39641D01*
X49176Y39680D01*
X49180Y39723D01*
Y39725D01*
Y39729D01*
Y39735D01*
X49178Y39743D01*
X49176Y39764D01*
X49172Y39794D01*
X49162Y39825D01*
X49150Y39860D01*
X49133Y39896D01*
X49109Y39929D01*
Y39931D01*
X49105Y39933D01*
X49095Y39945D01*
X49080Y39960D01*
X49054Y39980D01*
X49023Y40003D01*
X49005Y40017D01*
X48984Y40029D01*
X48962Y40043D01*
X48937Y40054D01*
X48911Y40066D01*
X48882Y40078D01*
X48880D01*
X48876Y40080D01*
X48870Y40082D01*
X48860Y40086D01*
X48848Y40090D01*
X48833Y40096D01*
X48811Y40102D01*
X48788Y40107D01*
X48760Y40115D01*
X48729Y40125D01*
X48692Y40135D01*
X48651Y40147D01*
X48605Y40158D01*
X48554Y40170D01*
X48498Y40184D01*
X48435Y40200D01*
X48431Y40201D01*
X48419Y40203D01*
X48401Y40207D01*
X48378Y40213D01*
X48351Y40221D01*
X48317Y40231D01*
X48282Y40241D01*
X48245Y40250D01*
X48164Y40276D01*
X48084Y40301D01*
X48045Y40315D01*
X48010Y40331D01*
X47978Y40345D01*
X47949Y40358D01*
X47947Y40360D01*
X47941Y40362D01*
X47931Y40368D01*
X47919Y40376D01*
X47904Y40384D01*
X47888Y40396D01*
X47847Y40423D01*
X47804Y40456D01*
X47759Y40495D01*
X47717Y40543D01*
X47698Y40566D01*
X47680Y40591D01*
Y40593D01*
X47676Y40597D01*
X47672Y40605D01*
X47667Y40617D01*
X47661Y40629D01*
X47653Y40644D01*
X47645Y40664D01*
X47637Y40684D01*
X47629Y40705D01*
X47622Y40731D01*
X47608Y40784D01*
X47598Y40842D01*
X47596Y40874D01*
X47594Y40905D01*
Y40907D01*
Y40913D01*
Y40925D01*
X47596Y40938D01*
X47598Y40954D01*
X47600Y40974D01*
X47604Y40997D01*
X47608Y41021D01*
X47620Y41076D01*
X47639Y41134D01*
X47653Y41166D01*
X47667Y41197D01*
X47682Y41229D01*
X47702Y41260D01*
X47704Y41262D01*
X47708Y41268D01*
X47714Y41276D01*
X47721Y41287D01*
X47733Y41301D01*
X47747Y41317D01*
X47763Y41334D01*
X47782Y41354D01*
X47804Y41374D01*
X47827Y41395D01*
X47853Y41417D01*
X47880Y41436D01*
X47912Y41458D01*
X47945Y41477D01*
X47980Y41495D01*
X48017Y41513D01*
X48019Y41515D01*
X48027Y41517D01*
X48039Y41521D01*
X48055Y41526D01*
X48074Y41532D01*
X48096Y41540D01*
X48123Y41548D01*
X48153Y41556D01*
X48186Y41564D01*
X48221Y41572D01*
X48259Y41579D01*
X48300Y41585D01*
X48341Y41591D01*
X48386Y41595D01*
X48431Y41599D01*
X48505D01*
X48525Y41597D01*
D02*
G37*
G36*
X52269Y39043D02*
X51945D01*
X51418Y40956D01*
Y40958D01*
X51416Y40966D01*
X51412Y40978D01*
X51408Y40995D01*
X51402Y41013D01*
X51396Y41034D01*
X51383Y41083D01*
X51369Y41134D01*
X51355Y41181D01*
X51349Y41203D01*
X51345Y41223D01*
X51341Y41240D01*
X51338Y41252D01*
Y41250D01*
X51336Y41244D01*
X51334Y41234D01*
X51330Y41223D01*
X51328Y41207D01*
X51322Y41191D01*
X51318Y41172D01*
X51312Y41150D01*
X51302Y41103D01*
X51289Y41054D01*
X51277Y41003D01*
X51263Y40956D01*
X50734Y39043D01*
X50391D01*
X49727Y41556D01*
X50066D01*
X50450Y39907D01*
Y39906D01*
X50452Y39896D01*
X50456Y39882D01*
X50460Y39862D01*
X50465Y39839D01*
X50471Y39811D01*
X50479Y39780D01*
X50487Y39747D01*
X50495Y39709D01*
X50503Y39668D01*
X50512Y39625D01*
X50520Y39582D01*
X50538Y39490D01*
X50556Y39394D01*
Y39396D01*
X50558Y39398D01*
Y39404D01*
X50560Y39412D01*
X50565Y39431D01*
X50571Y39459D01*
X50579Y39490D01*
X50587Y39525D01*
X50597Y39562D01*
X50607Y39602D01*
X50624Y39684D01*
X50634Y39723D01*
X50644Y39759D01*
X50652Y39792D01*
X50657Y39819D01*
X50663Y39841D01*
X50665Y39851D01*
X50667Y39856D01*
X51145Y41556D01*
X51547D01*
X51906Y40282D01*
Y40280D01*
X51908Y40276D01*
X51910Y40270D01*
X51912Y40260D01*
X51916Y40249D01*
X51920Y40235D01*
X51924Y40219D01*
X51928Y40201D01*
X51933Y40182D01*
X51939Y40160D01*
X51951Y40111D01*
X51965Y40054D01*
X51981Y39994D01*
X51996Y39927D01*
X52012Y39858D01*
X52030Y39784D01*
X52045Y39707D01*
X52077Y39551D01*
X52102Y39394D01*
Y39396D01*
X52104Y39406D01*
X52108Y39417D01*
X52112Y39435D01*
X52116Y39459D01*
X52122Y39486D01*
X52127Y39515D01*
X52135Y39551D01*
X52145Y39590D01*
X52155Y39631D01*
X52165Y39676D01*
X52176Y39723D01*
X52188Y39774D01*
X52200Y39827D01*
X52214Y39882D01*
X52227Y39939D01*
X52621Y41556D01*
X52957D01*
X52269Y39043D01*
D02*
G37*
G36*
X141000Y147757D02*
X139036D01*
X139038Y147756D01*
X139040Y147752D01*
X139046Y147746D01*
X139054Y147738D01*
X139064Y147726D01*
X139075Y147712D01*
X139087Y147697D01*
X139103Y147679D01*
X139118Y147660D01*
X139134Y147636D01*
X139152Y147612D01*
X139169Y147587D01*
X139209Y147528D01*
X139248Y147464D01*
X139250Y147461D01*
X139252Y147456D01*
X139258Y147446D01*
X139265Y147434D01*
X139273Y147416D01*
X139283Y147399D01*
X139295Y147377D01*
X139307Y147356D01*
X139332Y147305D01*
X139359Y147252D01*
X139385Y147195D01*
X139407Y147140D01*
X139109D01*
X139107Y147144D01*
X139103Y147152D01*
X139097Y147166D01*
X139087Y147183D01*
X139075Y147207D01*
X139062Y147232D01*
X139044Y147262D01*
X139026Y147293D01*
X139007Y147328D01*
X138983Y147363D01*
X138934Y147440D01*
X138877Y147516D01*
X138815Y147591D01*
X138813Y147593D01*
X138807Y147599D01*
X138797Y147608D01*
X138785Y147622D01*
X138770Y147638D01*
X138752Y147658D01*
X138730Y147677D01*
X138707Y147699D01*
X138656Y147744D01*
X138599Y147789D01*
X138538Y147830D01*
X138509Y147850D01*
X138478Y147865D01*
Y148065D01*
X141000D01*
Y147757D01*
D02*
G37*
G36*
Y146293D02*
X140479Y145962D01*
X140477Y145960D01*
X140469Y145956D01*
X140457Y145948D01*
X140441Y145939D01*
X140422Y145925D01*
X140400Y145911D01*
X140377Y145896D01*
X140351Y145878D01*
X140294Y145841D01*
X140238Y145799D01*
X140183Y145760D01*
X140157Y145741D01*
X140134Y145723D01*
X140132Y145721D01*
X140128Y145719D01*
X140122Y145713D01*
X140114Y145707D01*
X140093Y145690D01*
X140067Y145666D01*
X140040Y145641D01*
X140012Y145613D01*
X139987Y145584D01*
X139965Y145554D01*
X139963Y145551D01*
X139957Y145541D01*
X139950Y145527D01*
X139938Y145507D01*
X139928Y145484D01*
X139916Y145458D01*
X139906Y145431D01*
X139899Y145402D01*
Y145400D01*
X139897Y145390D01*
X139895Y145376D01*
X139891Y145357D01*
X139889Y145331D01*
X139887Y145300D01*
X139885Y145262D01*
Y144833D01*
X141000D01*
Y144500D01*
X138487D01*
Y145645D01*
X138489Y145668D01*
Y145696D01*
X138491Y145729D01*
X138493Y145764D01*
X138495Y145803D01*
X138499Y145843D01*
X138505Y145886D01*
X138517Y145970D01*
X138524Y146011D01*
X138532Y146050D01*
X138544Y146088D01*
X138556Y146123D01*
Y146125D01*
X138560Y146131D01*
X138564Y146141D01*
X138570Y146152D01*
X138577Y146166D01*
X138587Y146184D01*
X138599Y146203D01*
X138611Y146223D01*
X138627Y146244D01*
X138644Y146268D01*
X138664Y146291D01*
X138687Y146313D01*
X138711Y146336D01*
X138736Y146360D01*
X138766Y146381D01*
X138797Y146401D01*
X138799Y146403D01*
X138805Y146405D01*
X138815Y146411D01*
X138826Y146417D01*
X138842Y146427D01*
X138862Y146434D01*
X138883Y146444D01*
X138909Y146454D01*
X138934Y146464D01*
X138964Y146474D01*
X138995Y146484D01*
X139028Y146491D01*
X139099Y146503D01*
X139136Y146505D01*
X139173Y146507D01*
X139177D01*
X139185D01*
X139199Y146505D01*
X139218D01*
X139242Y146501D01*
X139267Y146497D01*
X139299Y146493D01*
X139330Y146485D01*
X139365Y146476D01*
X139403Y146464D01*
X139440Y146450D01*
X139477Y146432D01*
X139516Y146413D01*
X139553Y146389D01*
X139591Y146364D01*
X139626Y146333D01*
X139628Y146331D01*
X139634Y146325D01*
X139644Y146315D01*
X139655Y146299D01*
X139669Y146282D01*
X139687Y146258D01*
X139705Y146233D01*
X139724Y146201D01*
X139744Y146166D01*
X139763Y146127D01*
X139783Y146084D01*
X139801Y146035D01*
X139818Y145982D01*
X139834Y145927D01*
X139848Y145864D01*
X139857Y145799D01*
Y145801D01*
X139859Y145805D01*
X139863Y145811D01*
X139869Y145821D01*
X139881Y145844D01*
X139897Y145874D01*
X139916Y145905D01*
X139938Y145939D01*
X139959Y145972D01*
X139983Y145999D01*
X139985Y146001D01*
X139989Y146005D01*
X139997Y146013D01*
X140006Y146025D01*
X140020Y146037D01*
X140036Y146052D01*
X140053Y146070D01*
X140075Y146088D01*
X140098Y146109D01*
X140124Y146131D01*
X140151Y146152D01*
X140181Y146176D01*
X140212Y146201D01*
X140245Y146225D01*
X140318Y146274D01*
X141000Y146709D01*
Y146293D01*
D02*
G37*
G36*
X111500Y48364D02*
X111498D01*
X111494D01*
X111488D01*
X111480D01*
X111459D01*
X111431Y48368D01*
X111400Y48372D01*
X111363Y48377D01*
X111326Y48387D01*
X111286Y48399D01*
X111284D01*
X111278Y48403D01*
X111269Y48405D01*
X111257Y48411D01*
X111241Y48419D01*
X111224Y48426D01*
X111204Y48436D01*
X111180Y48448D01*
X111132Y48475D01*
X111075Y48511D01*
X111014Y48552D01*
X110953Y48601D01*
X110951Y48603D01*
X110945Y48607D01*
X110935Y48617D01*
X110924Y48626D01*
X110908Y48642D01*
X110890Y48660D01*
X110869Y48681D01*
X110843Y48705D01*
X110818Y48732D01*
X110789Y48762D01*
X110757Y48795D01*
X110724Y48832D01*
X110689Y48871D01*
X110651Y48913D01*
X110612Y48958D01*
X110573Y49007D01*
X110571Y49009D01*
X110569Y49011D01*
X110565Y49016D01*
X110557Y49024D01*
X110542Y49046D01*
X110518Y49073D01*
X110489Y49106D01*
X110457Y49144D01*
X110420Y49185D01*
X110381Y49230D01*
X110340Y49275D01*
X110297Y49322D01*
X110251Y49367D01*
X110206Y49412D01*
X110163Y49455D01*
X110120Y49495D01*
X110079Y49530D01*
X110042Y49559D01*
X110040Y49561D01*
X110032Y49565D01*
X110022Y49573D01*
X110009Y49583D01*
X109991Y49593D01*
X109969Y49604D01*
X109946Y49618D01*
X109920Y49632D01*
X109893Y49646D01*
X109863Y49659D01*
X109801Y49681D01*
X109769Y49691D01*
X109736Y49698D01*
X109703Y49702D01*
X109669Y49704D01*
X109667D01*
X109662D01*
X109652D01*
X109638Y49702D01*
X109622Y49700D01*
X109605Y49696D01*
X109583Y49693D01*
X109562Y49689D01*
X109513Y49673D01*
X109487Y49661D01*
X109462Y49650D01*
X109434Y49634D01*
X109409Y49616D01*
X109383Y49597D01*
X109360Y49573D01*
X109358Y49571D01*
X109354Y49567D01*
X109348Y49559D01*
X109340Y49549D01*
X109330Y49536D01*
X109319Y49520D01*
X109309Y49503D01*
X109295Y49481D01*
X109283Y49457D01*
X109274Y49432D01*
X109262Y49402D01*
X109252Y49373D01*
X109244Y49340D01*
X109238Y49306D01*
X109234Y49269D01*
X109232Y49230D01*
Y49209D01*
X109234Y49193D01*
X109236Y49175D01*
X109240Y49154D01*
X109244Y49128D01*
X109250Y49103D01*
X109256Y49075D01*
X109266Y49046D01*
X109275Y49016D01*
X109289Y48987D01*
X109305Y48956D01*
X109323Y48928D01*
X109344Y48899D01*
X109368Y48873D01*
X109370Y48871D01*
X109373Y48867D01*
X109381Y48862D01*
X109391Y48852D01*
X109405Y48842D01*
X109422Y48832D01*
X109442Y48818D01*
X109464Y48807D01*
X109489Y48795D01*
X109517Y48783D01*
X109548Y48771D01*
X109579Y48762D01*
X109616Y48752D01*
X109654Y48746D01*
X109695Y48742D01*
X109738Y48740D01*
X109705Y48423D01*
X109703D01*
X109701D01*
X109689Y48425D01*
X109671Y48426D01*
X109646Y48430D01*
X109616Y48436D01*
X109583Y48444D01*
X109544Y48454D01*
X109505Y48466D01*
X109462Y48479D01*
X109417Y48495D01*
X109371Y48515D01*
X109326Y48538D01*
X109283Y48564D01*
X109240Y48595D01*
X109201Y48628D01*
X109164Y48666D01*
X109162Y48667D01*
X109156Y48675D01*
X109146Y48687D01*
X109134Y48705D01*
X109121Y48726D01*
X109105Y48752D01*
X109087Y48783D01*
X109070Y48816D01*
X109054Y48856D01*
X109036Y48899D01*
X109021Y48946D01*
X109007Y48997D01*
X108995Y49052D01*
X108985Y49110D01*
X108979Y49173D01*
X108977Y49238D01*
Y49254D01*
X108979Y49273D01*
X108981Y49297D01*
X108983Y49328D01*
X108987Y49363D01*
X108995Y49402D01*
X109003Y49446D01*
X109013Y49489D01*
X109027Y49536D01*
X109042Y49583D01*
X109062Y49632D01*
X109085Y49679D01*
X109113Y49724D01*
X109144Y49769D01*
X109179Y49810D01*
X109181Y49812D01*
X109189Y49820D01*
X109199Y49830D01*
X109215Y49843D01*
X109234Y49859D01*
X109258Y49877D01*
X109285Y49896D01*
X109317Y49916D01*
X109350Y49936D01*
X109389Y49955D01*
X109428Y49973D01*
X109473Y49988D01*
X109520Y50002D01*
X109569Y50012D01*
X109620Y50020D01*
X109675Y50022D01*
X109677D01*
X109681D01*
X109691D01*
X109701D01*
X109714Y50020D01*
X109730Y50018D01*
X109750Y50016D01*
X109769Y50014D01*
X109814Y50006D01*
X109865Y49996D01*
X109918Y49981D01*
X109973Y49959D01*
X109975D01*
X109979Y49957D01*
X109987Y49953D01*
X109999Y49947D01*
X110012Y49942D01*
X110028Y49932D01*
X110046Y49922D01*
X110065Y49910D01*
X110112Y49883D01*
X110163Y49847D01*
X110220Y49804D01*
X110279Y49755D01*
X110281Y49753D01*
X110287Y49749D01*
X110295Y49740D01*
X110308Y49728D01*
X110324Y49712D01*
X110346Y49693D01*
X110367Y49669D01*
X110395Y49642D01*
X110424Y49610D01*
X110457Y49577D01*
X110495Y49538D01*
X110534Y49495D01*
X110577Y49448D01*
X110622Y49395D01*
X110671Y49340D01*
X110722Y49279D01*
X110724Y49275D01*
X110732Y49267D01*
X110743Y49254D01*
X110759Y49234D01*
X110779Y49212D01*
X110800Y49187D01*
X110824Y49160D01*
X110849Y49130D01*
X110902Y49069D01*
X110955Y49011D01*
X110979Y48985D01*
X111002Y48960D01*
X111022Y48940D01*
X111039Y48922D01*
X111043Y48918D01*
X111053Y48909D01*
X111069Y48895D01*
X111090Y48877D01*
X111116Y48856D01*
X111143Y48834D01*
X111173Y48812D01*
X111204Y48793D01*
Y50026D01*
X111500D01*
Y48364D01*
D02*
G37*
G36*
Y47793D02*
X110979Y47462D01*
X110977Y47460D01*
X110969Y47456D01*
X110957Y47448D01*
X110941Y47439D01*
X110922Y47425D01*
X110900Y47411D01*
X110877Y47396D01*
X110851Y47378D01*
X110794Y47341D01*
X110738Y47299D01*
X110683Y47260D01*
X110657Y47241D01*
X110634Y47223D01*
X110632Y47221D01*
X110628Y47219D01*
X110622Y47213D01*
X110614Y47207D01*
X110593Y47190D01*
X110567Y47166D01*
X110540Y47141D01*
X110512Y47113D01*
X110487Y47084D01*
X110465Y47054D01*
X110463Y47050D01*
X110457Y47041D01*
X110450Y47027D01*
X110438Y47007D01*
X110428Y46984D01*
X110416Y46958D01*
X110406Y46931D01*
X110398Y46902D01*
Y46900D01*
X110397Y46890D01*
X110395Y46876D01*
X110391Y46856D01*
X110389Y46831D01*
X110387Y46800D01*
X110385Y46762D01*
Y46333D01*
X111500D01*
Y46000D01*
X108987D01*
Y47145D01*
X108989Y47168D01*
Y47196D01*
X108991Y47229D01*
X108993Y47264D01*
X108995Y47303D01*
X108999Y47343D01*
X109005Y47386D01*
X109017Y47470D01*
X109025Y47511D01*
X109032Y47550D01*
X109044Y47587D01*
X109056Y47623D01*
Y47625D01*
X109060Y47631D01*
X109064Y47640D01*
X109070Y47652D01*
X109078Y47666D01*
X109087Y47684D01*
X109099Y47703D01*
X109111Y47723D01*
X109126Y47744D01*
X109144Y47768D01*
X109164Y47791D01*
X109187Y47813D01*
X109211Y47837D01*
X109236Y47860D01*
X109266Y47881D01*
X109297Y47901D01*
X109299Y47903D01*
X109305Y47905D01*
X109315Y47911D01*
X109326Y47917D01*
X109342Y47927D01*
X109362Y47934D01*
X109383Y47944D01*
X109409Y47954D01*
X109434Y47964D01*
X109464Y47974D01*
X109495Y47984D01*
X109528Y47991D01*
X109599Y48003D01*
X109636Y48005D01*
X109673Y48007D01*
X109677D01*
X109685D01*
X109699Y48005D01*
X109718D01*
X109742Y48001D01*
X109767Y47997D01*
X109799Y47993D01*
X109830Y47985D01*
X109865Y47976D01*
X109903Y47964D01*
X109940Y47950D01*
X109977Y47932D01*
X110016Y47913D01*
X110054Y47889D01*
X110091Y47864D01*
X110126Y47833D01*
X110128Y47831D01*
X110134Y47825D01*
X110144Y47815D01*
X110155Y47799D01*
X110169Y47782D01*
X110187Y47758D01*
X110205Y47733D01*
X110224Y47701D01*
X110244Y47666D01*
X110263Y47627D01*
X110283Y47584D01*
X110301Y47535D01*
X110318Y47482D01*
X110334Y47427D01*
X110348Y47364D01*
X110357Y47299D01*
Y47301D01*
X110359Y47305D01*
X110363Y47311D01*
X110369Y47321D01*
X110381Y47344D01*
X110397Y47374D01*
X110416Y47405D01*
X110438Y47439D01*
X110459Y47472D01*
X110483Y47499D01*
X110485Y47501D01*
X110489Y47505D01*
X110496Y47513D01*
X110506Y47525D01*
X110520Y47537D01*
X110536Y47552D01*
X110553Y47570D01*
X110575Y47587D01*
X110598Y47609D01*
X110624Y47631D01*
X110651Y47652D01*
X110681Y47676D01*
X110712Y47701D01*
X110745Y47725D01*
X110818Y47774D01*
X111500Y48209D01*
Y47793D01*
D02*
G37*
%LPC*%
G36*
X139175Y146164D02*
X139173D01*
X139167D01*
X139158D01*
X139146Y146162D01*
X139130Y146160D01*
X139113Y146158D01*
X139093Y146154D01*
X139071Y146148D01*
X139024Y146133D01*
X139001Y146123D01*
X138975Y146109D01*
X138952Y146095D01*
X138926Y146078D01*
X138903Y146058D01*
X138881Y146035D01*
X138879Y146033D01*
X138875Y146029D01*
X138872Y146021D01*
X138864Y146011D01*
X138854Y145995D01*
X138844Y145980D01*
X138834Y145958D01*
X138822Y145935D01*
X138813Y145909D01*
X138803Y145878D01*
X138793Y145844D01*
X138783Y145807D01*
X138775Y145768D01*
X138771Y145725D01*
X138768Y145678D01*
X138766Y145627D01*
Y144833D01*
X139597D01*
Y145584D01*
X139595Y145603D01*
Y145625D01*
X139593Y145650D01*
X139591Y145676D01*
X139585Y145733D01*
X139577Y145792D01*
X139565Y145850D01*
X139558Y145876D01*
X139550Y145901D01*
Y145903D01*
X139548Y145907D01*
X139544Y145913D01*
X139540Y145923D01*
X139530Y145946D01*
X139512Y145974D01*
X139493Y146005D01*
X139467Y146039D01*
X139436Y146070D01*
X139401Y146097D01*
X139399D01*
X139397Y146099D01*
X139391Y146103D01*
X139383Y146107D01*
X139362Y146119D01*
X139334Y146131D01*
X139301Y146142D01*
X139261Y146154D01*
X139220Y146162D01*
X139175Y146164D01*
D02*
G37*
G36*
X109675Y47664D02*
X109673D01*
X109667D01*
X109658D01*
X109646Y47662D01*
X109630Y47660D01*
X109613Y47658D01*
X109593Y47654D01*
X109571Y47648D01*
X109524Y47633D01*
X109501Y47623D01*
X109475Y47609D01*
X109452Y47595D01*
X109426Y47578D01*
X109403Y47558D01*
X109381Y47535D01*
X109379Y47533D01*
X109375Y47529D01*
X109371Y47521D01*
X109364Y47511D01*
X109354Y47495D01*
X109344Y47480D01*
X109334Y47458D01*
X109323Y47435D01*
X109313Y47409D01*
X109303Y47378D01*
X109293Y47344D01*
X109283Y47307D01*
X109275Y47268D01*
X109272Y47225D01*
X109268Y47178D01*
X109266Y47127D01*
Y46333D01*
X110097D01*
Y47084D01*
X110095Y47103D01*
Y47125D01*
X110093Y47150D01*
X110091Y47176D01*
X110085Y47233D01*
X110077Y47292D01*
X110065Y47350D01*
X110057Y47376D01*
X110050Y47401D01*
Y47403D01*
X110048Y47407D01*
X110044Y47413D01*
X110040Y47423D01*
X110030Y47446D01*
X110012Y47474D01*
X109993Y47505D01*
X109967Y47539D01*
X109936Y47570D01*
X109901Y47597D01*
X109899D01*
X109897Y47599D01*
X109891Y47603D01*
X109883Y47607D01*
X109862Y47619D01*
X109834Y47631D01*
X109801Y47642D01*
X109762Y47654D01*
X109720Y47662D01*
X109675Y47664D01*
D02*
G37*
%LPD*%
D10*
X31280Y26224D02*
Y51776D01*
Y26224D02*
X63720D01*
Y51776D01*
X31280D02*
X63720D01*
X135685Y121961D02*
X146315D01*
Y167039D01*
X135685D02*
X146315D01*
X135685Y121961D02*
Y167039D01*
X106185Y23461D02*
X116815D01*
Y68539D01*
X106185D02*
X116815D01*
X106185Y23461D02*
Y68539D01*
M02*
