G04*
G04 #@! TF.GenerationSoftware,Altium Limited,Altium Designer,23.0.1 (38)*
G04*
G04 Layer_Color=16711935*
%FSLAX25Y25*%
%MOIN*%
G70*
G04*
G04 #@! TF.SameCoordinates,3541F037-1E4E-4125-B444-BB1E2F39CCB3*
G04*
G04*
G04 #@! TF.FilePolarity,Positive*
G04*
G01*
G75*
%ADD10C,0.00787*%
%ADD14C,0.00500*%
%ADD51C,0.00394*%
%ADD52C,0.00394*%
D10*
X264894Y58059D02*
G03*
X264894Y58059I-394J0D01*
G01*
X212961Y11138D02*
G03*
X212961Y11138I-394J0D01*
G01*
Y77638D02*
G03*
X212961Y77638I-394J0D01*
G01*
X223106Y152157D02*
G03*
X223106Y152157I-394J0D01*
G01*
X114461Y97795D02*
G03*
X114461Y97795I-394J0D01*
G01*
X26614Y90921D02*
G03*
X26614Y90921I-394J0D01*
G01*
D14*
X251114Y119673D02*
X273752D01*
Y61012D02*
Y119673D01*
X251114Y61012D02*
X273752D01*
X251114D02*
Y119673D01*
X199181Y62909D02*
X221819D01*
Y14091D02*
Y62909D01*
X199181Y14091D02*
X221819D01*
X199181D02*
Y62909D01*
Y129409D02*
X221819D01*
Y80591D02*
Y129409D01*
X199181Y80591D02*
X221819D01*
X199181D02*
Y129409D01*
X197614Y142512D02*
X220252D01*
X197614D02*
Y171646D01*
X220252D01*
Y142512D02*
Y171646D01*
X100681Y169252D02*
X123319D01*
Y100748D02*
Y169252D01*
X100681Y100748D02*
X123319D01*
X100681D02*
Y169252D01*
X28681Y100567D02*
X51319D01*
Y71433D02*
Y100567D01*
X28681Y71433D02*
X51319D01*
X28681D02*
Y100567D01*
D51*
X66846Y71406D02*
G03*
X70094Y68158I3248J0D01*
G01*
X81905Y68158D02*
G03*
X85153Y71406I0J3248D01*
G01*
Y109595D02*
G03*
X81905Y112843I-3248J0D01*
G01*
X70094Y112843D02*
G03*
X66846Y109595I0J-3248D01*
G01*
X68716Y72488D02*
G03*
X70488Y70717I1772J0D01*
G01*
X81511D02*
G03*
X83283Y72488I0J1772D01*
G01*
Y108512D02*
G03*
X81511Y110284I-1772J0D01*
G01*
X70488D02*
G03*
X68716Y108512I0J-1772D01*
G01*
X159839Y154445D02*
G03*
X159839Y154445I-1969J0D01*
G01*
X94185Y150000D02*
G03*
X94185Y150000I-19685J0D01*
G01*
X28500Y176500D02*
X43500D01*
X28500Y166500D02*
X43500D01*
X28500D02*
Y176500D01*
X43500Y166500D02*
Y176500D01*
X85153Y71406D02*
Y109595D01*
X66846Y71406D02*
Y109595D01*
X83283Y72488D02*
Y108512D01*
X68716Y72488D02*
Y108512D01*
X70488Y110284D02*
X81511D01*
X70094Y112843D02*
X81905D01*
X70488Y70717D02*
X81511D01*
X70094Y68158D02*
X81905D01*
X266157Y136921D02*
Y177079D01*
X252969Y136921D02*
X271472D01*
X252969Y177079D02*
X271472D01*
Y136921D02*
Y177079D01*
X252969Y136921D02*
Y177079D01*
X154327Y19012D02*
X182673D01*
X154327Y157988D02*
X182673D01*
Y19012D02*
Y157988D01*
X154327Y19012D02*
Y157988D01*
X28500Y150000D02*
X43500D01*
X28500Y140000D02*
X43500D01*
X28500D02*
Y150000D01*
X43500Y140000D02*
Y150000D01*
D52*
X81905Y68158D02*
D03*
M02*
